<svg width="13" height="13" viewBox="0 0 13 13" fill="currentColor" xmlns="http://www.w3.org/2000/svg">
<path d="M6.5 0C10.0913 0 13 2.90875 13 6.5C13 10.0913 10.0913 13 6.5 13C2.90875 13 0 10.0913 0 6.5C0 2.90875 2.90875 0 6.5 0ZM6.5 11.375C9.18937 11.375 11.375 9.18937 11.375 6.5C11.375 3.81063 9.18937 1.625 6.5 1.625C3.81063 1.625 1.625 3.81063 1.625 6.5C1.625 9.18937 3.81063 11.375 6.5 11.375ZM5.92312 7.07687C5.98 7.1175 6.03688 7.15812 6.11 7.19875L6.09375 7.215L9.75 8.9375L7.28813 6.34563L6.5 2.4375L5.71187 6.34563H5.72C5.72 6.35752 5.71565 6.37377 5.71012 6.39438C5.7081 6.40192 5.70593 6.41004 5.70375 6.41875C5.70205 6.42553 5.70036 6.43196 5.69874 6.43811C5.69259 6.46143 5.6875 6.48071 5.6875 6.5C5.6875 6.7275 5.76875 6.9225 5.92312 7.07687Z" fill="currentColor"/>
<path d="M6.5 0C10.0913 0 13 2.90875 13 6.5C13 10.0913 10.0913 13 6.5 13C2.90875 13 0 10.0913 0 6.5C0 2.90875 2.90875 0 6.5 0ZM6.5 11.375C9.18937 11.375 11.375 9.18937 11.375 6.5C11.375 3.81063 9.18937 1.625 6.5 1.625C3.81063 1.625 1.625 3.81063 1.625 6.5C1.625 9.18937 3.81063 11.375 6.5 11.375ZM5.92312 7.07687C5.98 7.1175 6.03688 7.15812 6.11 7.19875L6.09375 7.215L9.75 8.9375L7.28813 6.34563L6.5 2.4375L5.71187 6.34563H5.72C5.72 6.35752 5.71565 6.37377 5.71012 6.39438C5.7081 6.40192 5.70593 6.41004 5.70375 6.41875C5.70205 6.42553 5.70036 6.43196 5.69874 6.43811C5.69259 6.46143 5.6875 6.48071 5.6875 6.5C5.6875 6.7275 5.76875 6.9225 5.92312 7.07687Z" stroke="none"/>
</svg>