<svg width="23" height="23" viewBox="0 0 23 23" fill="none" xmlns="http://www.w3.org/2000/svg">
<path d="M19.55 1.15002H3.45002C2.18502 1.15002 1.15002 2.18502 1.15002 3.45002V19.55C1.15002 20.8162 2.18502 21.85 3.45002 21.85H11.5V13.8H9.20003V10.9538H11.5V8.59627C11.5 6.10767 12.8938 4.35967 15.8309 4.35967L17.9044 4.36197V7.35772H16.5278C15.3847 7.35772 14.95 8.21562 14.95 9.01143V10.9549H17.9032L17.25 13.8H14.95V21.85H19.55C20.815 21.85 21.85 20.8162 21.85 19.55V3.45002C21.85 2.18502 20.815 1.15002 19.55 1.15002Z" fill="#0A1D37"/>
</svg>
