<svg width="22" height="21" viewBox="0 0 22 21" fill="#FFFFFF" xmlns="http://www.w3.org/2000/svg">
<path d="M14.7125 10.5C14.7125 8.53125 13.0625 6.95625 11 6.95625C8.9375 6.95625 7.2875 8.53125 7.2875 10.5C7.2875 12.4688 8.9375 14.0437 11 14.0437C13.0625 14.0437 14.7125 12.4688 14.7125 10.5ZM16.6375 10.5C16.6375 13.5188 14.1625 15.8813 11 15.8813C7.8375 15.8813 5.3625 13.5188 5.3625 10.5C5.3625 7.48125 7.8375 5.11875 11 5.11875C14.1625 5.11875 16.6375 7.48125 16.6375 10.5ZM18.15 4.85625C18.15 5.64375 17.6 6.16875 16.775 6.16875C15.95 6.16875 15.4 5.64375 15.4 4.85625C15.4 4.06875 15.95 3.54375 16.775 3.54375C17.6 3.54375 18.15 4.2 18.15 4.85625ZM11 1.8375C9.35 1.8375 5.9125 1.70625 4.5375 2.23125C3.575 2.625 2.75 3.4125 2.475 4.33125C1.925 5.64375 2.0625 8.925 2.0625 10.5C2.0625 12.075 1.925 15.3562 2.475 16.6687C2.75 17.5875 3.575 18.375 4.5375 18.6375C5.9125 19.1625 9.4875 19.0312 11 19.0312C12.5125 19.0312 16.0875 19.1625 17.4625 18.6375C18.425 18.2438 19.1125 17.5875 19.525 16.6687C20.075 15.225 19.9375 11.9438 19.9375 10.5C19.9375 9.05625 20.075 5.64375 19.525 4.33125C19.25 3.4125 18.425 2.625 17.4625 2.3625C16.0875 1.70625 12.65 1.8375 11 1.8375ZM22 10.5V14.8313C22 16.4062 21.45 17.9813 20.2125 19.2938C18.975 20.475 17.325 21 15.5375 21H6.4625C4.8125 21 3.1625 20.475 1.7875 19.2938C0.6875 18.1125 0 16.5375 0 14.8313V6.16875C0 4.4625 0.6875 2.8875 1.7875 1.70625C3.1625 0.65625 4.8125 0 6.4625 0H15.5375C17.1875 0 18.8375 0.525 20.2125 1.70625C21.3125 2.8875 22 4.4625 22 6.16875V10.5Z" fill="#FFFFFF"/>
</svg>
