<svg width="232" height="105" viewBox="0 0 232 105" fill="none" xmlns="http://www.w3.org/2000/svg">
<rect x="5" width="77" height="96" fill="#C8102E"/>
<path d="M89.6499 95.7433V79.016H96.0533C97.2621 79.016 98.2667 79.2066 99.0671 79.5877C99.873 79.9635 100.475 80.478 100.872 81.1314C101.275 81.7848 101.477 82.5254 101.477 83.353C101.477 84.0337 101.346 84.6163 101.085 85.1009C100.823 85.5801 100.472 85.9694 100.031 86.2689C99.5898 86.5683 99.0971 86.7834 98.5526 86.9141V87.0774C99.1461 87.1101 99.7151 87.2925 100.26 87.6247C100.81 87.9514 101.259 88.4142 101.607 89.0132C101.956 89.6121 102.13 90.3363 102.13 91.1858C102.13 92.0515 101.92 92.8302 101.501 93.5217C101.082 94.2078 100.45 94.7496 99.6062 95.1471C98.7622 95.5445 97.7004 95.7433 96.4208 95.7433H89.6499ZM92.68 93.2113H95.9389C97.0388 93.2113 97.8311 93.0017 98.3157 92.5824C98.8058 92.1577 99.0508 91.6132 99.0508 90.9489C99.0508 90.4534 98.9283 90.0069 98.6832 89.6094C98.4382 89.2065 98.0897 88.8907 97.6378 88.662C97.1858 88.4278 96.6468 88.3108 96.0206 88.3108H92.68V93.2113ZM92.68 86.13H95.6776C96.2003 86.13 96.6713 86.0347 97.0906 85.8441C97.5098 85.6481 97.8393 85.3731 98.0788 85.0192C98.3239 84.6598 98.4464 84.2351 98.4464 83.7451C98.4464 83.0971 98.2177 82.5635 97.7603 82.1442C97.3084 81.7249 96.6359 81.5153 95.7429 81.5153H92.68V86.13ZM119.276 87.3796C119.276 89.182 118.938 90.7256 118.263 92.0107C117.593 93.2903 116.679 94.2704 115.519 94.951C114.364 95.6317 113.055 95.972 111.59 95.972C110.125 95.972 108.813 95.6317 107.653 94.951C106.499 94.2649 105.584 93.2821 104.909 92.0025C104.239 90.7175 103.904 89.1765 103.904 87.3796C103.904 85.5773 104.239 84.0364 104.909 82.7568C105.584 81.4717 106.499 80.4889 107.653 79.8083C108.813 79.1276 110.125 78.7873 111.59 78.7873C113.055 78.7873 114.364 79.1276 115.519 79.8083C116.679 80.4889 117.593 81.4717 118.263 82.7568C118.938 84.0364 119.276 85.5773 119.276 87.3796ZM116.229 87.3796C116.229 86.1109 116.031 85.041 115.633 84.1698C115.241 83.2931 114.696 82.6315 114 82.185C113.303 81.7331 112.499 81.5071 111.59 81.5071C110.681 81.5071 109.878 81.7331 109.181 82.185C108.484 82.6315 107.936 83.2931 107.539 84.1698C107.147 85.041 106.951 86.1109 106.951 87.3796C106.951 88.6484 107.147 89.721 107.539 90.5977C107.936 91.4689 108.484 92.1305 109.181 92.5824C109.878 93.0289 110.681 93.2522 111.59 93.2522C112.499 93.2522 113.303 93.0289 114 92.5824C114.696 92.1305 115.241 91.4689 115.633 90.5977C116.031 89.721 116.229 88.6484 116.229 87.3796ZM122.953 95.7433H119.719L125.608 79.016H129.348L135.245 95.7433H132.011L127.543 82.4464H127.413L122.953 95.7433ZM123.059 89.1847H131.88V91.6186H123.059V89.1847ZM134.255 81.5561V79.016H147.601V81.5561H142.431V95.7433H139.425V81.5561H134.255ZM164.095 83.6144C164.019 82.9011 163.698 82.3457 163.132 81.9482C162.571 81.5507 161.841 81.352 160.943 81.352C160.311 81.352 159.769 81.4472 159.317 81.6378C158.865 81.8284 158.52 82.087 158.28 82.4137C158.041 82.7404 157.918 83.1134 157.913 83.5327C157.913 83.8812 157.992 84.1834 158.149 84.4393C158.313 84.6952 158.533 84.913 158.811 85.0927C159.089 85.267 159.396 85.414 159.734 85.5338C160.072 85.6536 160.412 85.7543 160.755 85.836L162.323 86.228C162.955 86.375 163.562 86.5738 164.144 86.8243C164.733 87.0747 165.258 87.3905 165.721 87.7717C166.189 88.1529 166.559 88.613 166.832 89.152C167.104 89.6911 167.24 90.3227 167.24 91.0469C167.24 92.027 166.99 92.8901 166.489 93.636C165.988 94.3766 165.263 94.9565 164.316 95.3757C163.374 95.7896 162.233 95.9965 160.894 95.9965C159.592 95.9965 158.463 95.795 157.504 95.3921C156.551 94.9891 155.805 94.4011 155.266 93.6279C154.733 92.8547 154.444 91.9127 154.4 90.8019H157.382C157.425 91.3845 157.605 91.8691 157.921 92.2557C158.237 92.6423 158.648 92.9309 159.154 93.1215C159.666 93.3121 160.238 93.4073 160.869 93.4073C161.528 93.4073 162.105 93.3093 162.601 93.1133C163.102 92.9118 163.494 92.6341 163.777 92.2802C164.06 91.9208 164.204 91.5016 164.21 91.0224C164.204 90.5868 164.076 90.2274 163.826 89.9443C163.575 89.6557 163.224 89.4161 162.772 89.2255C162.326 89.0295 161.803 88.8553 161.204 88.7028L159.301 88.2127C157.923 87.8588 156.834 87.3225 156.034 86.6037C155.239 85.8795 154.842 84.9185 154.842 83.7206C154.842 82.735 155.108 81.872 155.642 81.1314C156.181 80.3909 156.913 79.8164 157.839 79.4081C158.765 78.9942 159.813 78.7873 160.984 78.7873C162.171 78.7873 163.211 78.9942 164.104 79.4081C165.002 79.8164 165.707 80.3854 166.219 81.1151C166.731 81.8393 166.995 82.6724 167.011 83.6144H164.095ZM171.383 95.7433H168.149L174.037 79.016H177.778L183.675 95.7433H180.441L175.973 82.4464H175.842L171.383 95.7433ZM171.489 89.1847H180.31V91.6186H171.489V89.1847ZM185.441 95.7433V79.016H196.157V81.5561H188.472V86.0973H195.422V88.6375H188.472V95.7433H185.441ZM198.54 95.7433H195.306L201.195 79.016H204.935L210.832 95.7433H207.598L203.13 82.4464H203L198.54 95.7433ZM198.646 89.1847H207.467V91.6186H198.646V89.1847ZM212.599 95.7433V79.016H218.871C220.156 79.016 221.235 79.2393 222.106 79.6858C222.982 80.1323 223.644 80.7584 224.091 81.5643C224.542 82.3647 224.768 83.2986 224.768 84.3658C224.768 85.4385 224.54 86.3696 224.082 87.1591C223.63 87.9432 222.963 88.5503 222.081 88.9805C221.199 89.4052 220.116 89.6176 218.831 89.6176H214.363V87.102H218.422C219.174 87.102 219.789 86.9985 220.268 86.7916C220.747 86.5792 221.101 86.2716 221.33 85.8686C221.564 85.4603 221.681 84.9593 221.681 84.3658C221.681 83.7723 221.564 83.2659 221.33 82.8466C221.096 82.4219 220.739 82.1006 220.26 81.8828C219.781 81.6596 219.163 81.548 218.406 81.548H215.629V95.7433H212.599ZM221.24 88.1637L225.381 95.7433H222L217.932 88.1637H221.24ZM230.151 79.016V95.7433H227.121V79.016H230.151Z" fill="#C8102E"/>
<path d="M98.7404 32.6144C98.6642 31.9011 98.3429 31.3457 97.7766 30.9482C97.2158 30.5507 96.4862 30.352 95.5877 30.352C94.9561 30.352 94.4143 30.4472 93.9624 30.6378C93.5104 30.8284 93.1647 31.087 92.9251 31.4137C92.6855 31.7404 92.563 32.1134 92.5575 32.5327C92.5575 32.8812 92.6365 33.1834 92.7944 33.4393C92.9577 33.6952 93.1783 33.913 93.456 34.0927C93.7337 34.267 94.0413 34.414 94.3789 34.5338C94.7165 34.6536 95.0568 34.7543 95.3999 34.836L96.968 35.228C97.5997 35.375 98.2068 35.5738 98.7894 35.8243C99.3775 36.0747 99.9029 36.3905 100.366 36.7717C100.834 37.1529 101.204 37.613 101.477 38.152C101.749 38.6911 101.885 39.3227 101.885 40.0469C101.885 41.027 101.634 41.8901 101.134 42.636C100.633 43.3766 99.9084 43.9565 98.9609 44.3757C98.0189 44.7896 96.8782 44.9965 95.5387 44.9965C94.2373 44.9965 93.1075 44.795 92.1491 44.3921C91.1963 43.9891 90.4503 43.4011 89.9112 42.6279C89.3776 41.8547 89.089 40.9127 89.0455 39.8019H92.0266C92.0702 40.3845 92.2499 40.8691 92.5657 41.2557C92.8815 41.6423 93.2926 41.9309 93.799 42.1215C94.3108 42.3121 94.8826 42.4073 95.5142 42.4073C96.1731 42.4073 96.7502 42.3093 97.2457 42.1133C97.7467 41.9118 98.1387 41.6341 98.4219 41.2802C98.705 40.9208 98.8493 40.5016 98.8548 40.0224C98.8493 39.5868 98.7214 39.2274 98.4709 38.9443C98.2204 38.6557 97.8692 38.4161 97.4173 38.2255C96.9708 38.0295 96.448 37.8553 95.8491 37.7028L93.946 37.2127C92.5684 36.8588 91.4794 36.3225 90.679 35.6037C89.884 34.8795 89.4865 33.9185 89.4865 32.7206C89.4865 31.735 89.7533 30.872 90.2869 30.1314C90.826 29.3909 91.5584 28.8164 92.484 28.4081C93.4097 27.9942 94.4579 27.7873 95.6286 27.7873C96.8156 27.7873 97.8556 27.9942 98.7486 28.4081C99.647 28.8164 100.352 29.3854 100.864 30.1151C101.376 30.8393 101.64 31.6724 101.656 32.6144H98.7404ZM107.18 28.016V44.7433H104.149V28.016H107.18ZM119.114 32.6144C119.038 31.9011 118.717 31.3457 118.151 30.9482C117.59 30.5507 116.86 30.352 115.962 30.352C115.33 30.352 114.788 30.4472 114.336 30.6378C113.884 30.8284 113.539 31.087 113.299 31.4137C113.06 31.7404 112.937 32.1134 112.932 32.5327C112.932 32.8812 113.011 33.1834 113.168 33.4393C113.332 33.6952 113.552 33.913 113.83 34.0927C114.108 34.267 114.415 34.414 114.753 34.5338C115.091 34.6536 115.431 34.7543 115.774 34.836L117.342 35.228C117.974 35.375 118.581 35.5738 119.163 35.8243C119.752 36.0747 120.277 36.3905 120.74 36.7717C121.208 37.1529 121.578 37.613 121.851 38.152C122.123 38.6911 122.259 39.3227 122.259 40.0469C122.259 41.027 122.009 41.8901 121.508 42.636C121.007 43.3766 120.282 43.9565 119.335 44.3757C118.393 44.7896 117.252 44.9965 115.913 44.9965C114.611 44.9965 113.482 44.795 112.523 44.3921C111.57 43.9891 110.824 43.4011 110.285 42.6279C109.752 41.8547 109.463 40.9127 109.42 39.8019H112.401C112.444 40.3845 112.624 40.8691 112.94 41.2557C113.256 41.6423 113.667 41.9309 114.173 42.1215C114.685 42.3121 115.257 42.4073 115.888 42.4073C116.547 42.4073 117.124 42.3093 117.62 42.1133C118.121 41.9118 118.513 41.6341 118.796 41.2802C119.079 40.9208 119.223 40.5016 119.229 40.0224C119.223 39.5868 119.095 39.2274 118.845 38.9443C118.594 38.6557 118.243 38.4161 117.791 38.2255C117.345 38.0295 116.822 37.8553 116.223 37.7028L114.32 37.2127C112.942 36.8588 111.853 36.3225 111.053 35.6037C110.258 34.8795 109.861 33.9185 109.861 32.7206C109.861 31.735 110.127 30.872 110.661 30.1314C111.2 29.3909 111.932 28.8164 112.858 28.4081C113.784 27.9942 114.832 27.7873 116.003 27.7873C117.19 27.7873 118.23 27.9942 119.123 28.4081C120.021 28.8164 120.726 29.3854 121.238 30.1151C121.75 30.8393 122.014 31.6724 122.03 32.6144H119.114ZM127.554 28.016V44.7433H124.523V28.016H127.554ZM130.398 28.016H134.106L139.072 40.1368H139.268L144.234 28.016H147.942V44.7433H145.034V33.2515H144.879L140.256 44.6943H138.084L133.461 33.227H133.306V44.7433H130.398V28.016ZM153.835 28.016V44.7433H150.805V28.016H153.835ZM167.224 28.016H170.254V38.9443C170.254 40.1422 169.971 41.1958 169.404 42.1051C168.844 43.0145 168.054 43.7251 167.036 44.2369C166.018 44.7433 164.828 44.9965 163.467 44.9965C162.1 44.9965 160.907 44.7433 159.889 44.2369C158.871 43.7251 158.081 43.0145 157.52 42.1051C156.96 41.1958 156.679 40.1422 156.679 38.9443V28.016H159.709V38.6911C159.709 39.3881 159.862 40.0088 160.167 40.5533C160.477 41.0978 160.913 41.5252 161.474 41.8356C162.034 42.1405 162.699 42.293 163.467 42.293C164.234 42.293 164.899 42.1405 165.459 41.8356C166.026 41.5252 166.461 41.0978 166.766 40.5533C167.071 40.0088 167.224 39.3881 167.224 38.6911V28.016ZM172.375 30.5561V28.016H185.721V30.5561H180.551V44.7433H177.545V30.5561H172.375Z" fill="#C8102E"/>
<path d="M89.6499 70.7433V54.016H95.9226C97.2076 54.016 98.2857 54.2556 99.157 54.7348C100.034 55.2139 100.695 55.8728 101.142 56.7113C101.594 57.5444 101.82 58.4919 101.82 59.5537C101.82 60.6263 101.594 61.5792 101.142 62.4123C100.69 63.2454 100.023 63.9015 99.1406 64.3807C98.2585 64.8544 97.1722 65.0913 95.8817 65.0913H91.7244V62.6002H95.4734C96.2248 62.6002 96.8401 62.4695 97.3192 62.2081C97.7984 61.9468 98.1523 61.5874 98.381 61.13C98.6152 60.6726 98.7322 60.1472 98.7322 59.5537C98.7322 58.9601 98.6152 58.4374 98.381 57.9855C98.1523 57.5335 97.7957 57.1823 97.3111 56.9319C96.8319 56.6759 96.2139 56.548 95.457 56.548H92.68V70.7433H89.6499ZM104.015 70.7433V54.016H110.287C111.572 54.016 112.651 54.2393 113.522 54.6858C114.398 55.1323 115.06 55.7584 115.506 56.5643C115.958 57.3647 116.184 58.2986 116.184 59.3658C116.184 60.4385 115.956 61.3696 115.498 62.1591C115.046 62.9432 114.379 63.5503 113.497 63.9805C112.615 64.4052 111.532 64.6176 110.247 64.6176H105.779V62.102H109.838C110.59 62.102 111.205 61.9985 111.684 61.7916C112.163 61.5792 112.517 61.2716 112.746 60.8686C112.98 60.4603 113.097 59.9593 113.097 59.3658C113.097 58.7723 112.98 58.2659 112.746 57.8466C112.512 57.4219 112.155 57.1006 111.676 56.8828C111.197 56.6596 110.579 56.548 109.822 56.548H107.045V70.7433H104.015ZM112.656 63.1637L116.797 70.7433H113.416L109.348 63.1637H112.656ZM121.567 54.016V70.7433H118.537V54.016H121.567ZM126.649 54.016L131.002 67.1822H131.174L135.519 54.016H138.851L132.954 70.7433H129.214L123.325 54.016H126.649ZM140.812 70.7433H137.577L143.466 54.016H147.207L153.104 70.7433H149.87L145.402 57.4464H145.271L140.812 70.7433ZM140.918 64.1847H149.739V66.6186H140.918V64.1847ZM152.114 56.5561V54.016H165.459V56.5561H160.289V70.7433H157.284V56.5561H152.114ZM167.595 70.7433V54.016H178.475V56.5561H170.625V61.0973H177.911V63.6375H170.625V68.2032H178.54V70.7433H167.595Z" fill="#C8102E"/>
<path d="M58.885 41.3116C60.5404 41.9096 62.465 42.9831 63.4878 43.8801C64.4164 44.709 65.2105 45.7826 64.9817 45.9185C64.9144 45.9457 64.5914 46.0273 64.228 46.068C63.6224 46.1631 63.5955 46.1903 63.5955 46.598C63.5955 47.6716 64.403 51.9116 64.6452 52.1562C64.7125 52.2242 64.901 52.1562 65.1028 51.9931C65.2913 51.8437 65.7758 51.5583 66.1661 51.3544C66.8121 51.0147 67.0274 50.9739 68.1714 50.9875C69.8133 50.9875 70.7554 51.2729 71.5764 51.9931C72.3974 52.727 72.6396 53.3929 72.5858 54.779L72.5454 55.8662L72.0071 55.9342C71.5091 56.0021 71.4418 56.0565 71.0784 56.8039C70.8765 57.2524 70.6612 57.8503 70.6208 58.1493C70.567 58.5978 70.5132 58.6657 70.2709 58.5978C69.3826 58.3396 66.2468 57.8367 64.7125 57.7008C62.3708 57.4834 55.7222 57.5921 53.0978 57.8911C52.0211 58.0134 49.4236 58.3939 47.3107 58.7201C36.6111 60.378 28.1726 60.6498 24.9426 59.4267C22.0086 58.2988 20.259 56.7767 16.5041 52.0067C16.1676 51.5855 15.4678 50.7565 14.9564 50.1449C13.8393 48.8675 12.3992 46.9785 12.4665 46.9106C12.5877 46.8155 16.1945 46.4078 18.0787 46.2855C22.224 46.0137 29.68 46.1631 35.0634 46.6252C36.3554 46.7339 37.8493 46.8562 38.3877 46.9106L39.3432 46.9921L41.2139 45.2662C43.798 42.888 44.0133 42.7929 48.6565 42.1406C49.5044 42.0183 51.4963 41.7057 53.0709 41.4475C56.4894 40.8903 57.6603 40.8631 58.885 41.3116ZM51.8193 43.0239C46.8262 43.418 45.5072 43.5947 44.4709 44.0839C43.3404 44.6003 40.6487 46.8155 40.8775 47.0329C40.9044 47.0737 41.7792 47.196 42.8155 47.3047C45.09 47.5629 46.4224 47.7803 49.3967 48.3647C50.7695 48.6501 51.7654 48.786 51.9 48.718C52.0211 48.6637 52.7075 47.889 53.4477 47.0057C54.1745 46.1224 55.2377 44.8721 55.8165 44.2062C56.3952 43.5539 56.8662 42.956 56.8662 42.888C56.8662 42.6842 55.8568 42.7114 51.8193 43.0239ZM57.6737 44.4101C56.6778 45.6739 56.301 46.136 54.659 48.0793C54.1745 48.6501 53.8246 49.1529 53.8784 49.1937C53.9457 49.2344 54.4437 49.3567 54.9955 49.4926C56.6374 49.8596 59.383 50.6206 61.146 51.2049C62.0612 51.5039 62.8553 51.7078 62.8956 51.6534C62.9764 51.5719 62.1958 46.068 61.967 45.1711C61.8862 44.8585 61.6844 44.5596 61.4152 44.3693C60.9845 44.0567 59.06 43.1598 58.8042 43.1598C58.7235 43.1598 58.2255 43.7306 57.6737 44.4101ZM19.2362 48.256C15.5755 48.5957 16.1273 48.7044 21.2011 48.6229C28.1592 48.5278 34.0271 48.8675 39.6393 49.6829C47.8355 50.8652 55.5607 52.5503 63.5282 54.8742C68.3463 56.2875 68.8443 56.3962 69.0596 56.1788C69.1539 56.0837 69.275 55.8119 69.3288 55.5808C69.4096 55.1731 69.3961 55.1731 68.6828 55.0237C68.2925 54.9421 66.3006 54.4529 64.2684 53.9229C51.6443 50.6206 41.2947 48.7996 31.8334 48.188C28.8859 48.0114 21.5241 48.0385 19.2362 48.256Z" fill="white"/>
<path d="M18.7786 43.5132C18.967 43.5403 20.3532 43.6491 21.874 43.7714C23.3948 43.8937 25.5348 44.1111 26.6518 44.2606C29.1282 44.5732 34.875 45.5788 34.7673 45.6739C34.7404 45.6875 33.2061 45.6196 31.3623 45.5108C25.5348 45.1711 18.5498 45.4021 13.5836 46.1088L11.9416 46.3262L11.6052 45.9321C10.0305 44.0296 9.88249 43.8393 10.0574 43.785C10.6765 43.5811 17.5404 43.3637 18.7786 43.5132Z" fill="white"/>
<path d="M65.6816 59.6034C67.5254 59.7257 69.7191 60.0655 71.4687 60.5139C73.151 60.9352 75.8293 61.8457 76.0312 62.0496C76.1388 62.1719 76.1119 62.1991 75.91 62.1447C75.3044 61.968 72.4916 61.6419 70.3651 61.4924C66.1257 61.207 59.8675 61.6011 49.7332 62.797C44.7401 63.3814 41.9003 63.6396 37.8493 63.8434C31.2143 64.1696 25.4944 63.4493 20.9319 61.6827C19.5188 61.1391 17.5135 60.1606 17.0963 59.8073C16.7867 59.5491 16.8136 59.5627 18.3748 60.2014C21.3357 61.4109 25.4002 62.036 30.4202 62.036C33.8252 62.0496 36.5842 61.8186 44.8208 60.8265C52.3711 59.9296 54.013 59.7529 56.9335 59.6034C59.6521 59.4539 63.4474 59.4539 65.6816 59.6034Z" fill="white"/>
<path d="M70.7285 63.1367C72.2628 63.2862 75.7351 63.8026 75.8293 63.8978C75.8697 63.9385 75.3313 63.9114 74.6315 63.857C73.9316 63.8026 71.8994 63.7619 70.1229 63.7755C66.3006 63.789 63.2321 64.1152 53.515 65.5285C44.2825 66.8603 42.0349 67.0914 37.2706 67.1729C32.7889 67.2544 31.5911 67.1729 28.4687 66.5342C26.3154 66.0857 24.5792 65.4878 22.9911 64.6316C21.4299 63.789 21.2953 63.5716 22.6816 64.1016C25.3598 65.1344 30.0837 65.8547 34.1886 65.8547C37.0014 65.8547 42.1964 65.379 49.1276 64.4957C58.5889 63.2862 60.5404 63.1232 65.4124 63.0688C67.7003 63.0416 70.0959 63.0688 70.7285 63.1367Z" fill="white"/>
</svg>
