<svg width="232" height="93" viewBox="0 0 232 93" fill="none" xmlns="http://www.w3.org/2000/svg">
<rect x="5" width="77" height="84" fill="white"/>
<path d="M89.6499 83.7433V67.016H96.0533C97.2621 67.016 98.2667 67.2066 99.0671 67.5877C99.873 67.9635 100.475 68.478 100.872 69.1314C101.275 69.7848 101.477 70.5254 101.477 71.353C101.477 72.0337 101.346 72.6163 101.085 73.1009C100.823 73.5801 100.472 73.9694 100.031 74.2689C99.5898 74.5683 99.0971 74.7834 98.5526 74.9141V75.0774C99.1461 75.1101 99.7151 75.2925 100.26 75.6247C100.81 75.9514 101.259 76.4142 101.607 77.0132C101.956 77.6121 102.13 78.3363 102.13 79.1858C102.13 80.0515 101.92 80.8302 101.501 81.5217C101.082 82.2078 100.45 82.7496 99.6062 83.1471C98.7622 83.5445 97.7004 83.7433 96.4208 83.7433H89.6499ZM92.68 81.2113H95.9389C97.0388 81.2113 97.8311 81.0017 98.3157 80.5824C98.8058 80.1577 99.0508 79.6132 99.0508 78.9489C99.0508 78.4534 98.9283 78.0069 98.6832 77.6094C98.4382 77.2065 98.0897 76.8907 97.6378 76.662C97.1858 76.4278 96.6468 76.3108 96.0206 76.3108H92.68V81.2113ZM92.68 74.13H95.6776C96.2003 74.13 96.6713 74.0347 97.0906 73.8441C97.5098 73.6481 97.8393 73.3731 98.0788 73.0192C98.3239 72.6598 98.4464 72.2351 98.4464 71.7451C98.4464 71.0971 98.2177 70.5635 97.7603 70.1442C97.3084 69.7249 96.6359 69.5153 95.7429 69.5153H92.68V74.13ZM119.276 75.3796C119.276 77.182 118.938 78.7256 118.263 80.0107C117.593 81.2903 116.679 82.2704 115.519 82.951C114.364 83.6317 113.055 83.972 111.59 83.972C110.125 83.972 108.813 83.6317 107.653 82.951C106.499 82.2649 105.584 81.2821 104.909 80.0025C104.239 78.7175 103.904 77.1765 103.904 75.3796C103.904 73.5773 104.239 72.0364 104.909 70.7568C105.584 69.4717 106.499 68.4889 107.653 67.8083C108.813 67.1276 110.125 66.7873 111.59 66.7873C113.055 66.7873 114.364 67.1276 115.519 67.8083C116.679 68.4889 117.593 69.4717 118.263 70.7568C118.938 72.0364 119.276 73.5773 119.276 75.3796ZM116.229 75.3796C116.229 74.1109 116.031 73.041 115.633 72.1698C115.241 71.2931 114.696 70.6315 114 70.185C113.303 69.7331 112.499 69.5071 111.59 69.5071C110.681 69.5071 109.878 69.7331 109.181 70.185C108.484 70.6315 107.936 71.2931 107.539 72.1698C107.147 73.041 106.951 74.1109 106.951 75.3796C106.951 76.6484 107.147 77.721 107.539 78.5977C107.936 79.4689 108.484 80.1305 109.181 80.5824C109.878 81.0289 110.681 81.2522 111.59 81.2522C112.499 81.2522 113.303 81.0289 114 80.5824C114.696 80.1305 115.241 79.4689 115.633 78.5977C116.031 77.721 116.229 76.6484 116.229 75.3796ZM122.953 83.7433H119.719L125.608 67.016H129.348L135.245 83.7433H132.011L127.543 70.4464H127.413L122.953 83.7433ZM123.059 77.1847H131.88V79.6186H123.059V77.1847ZM134.255 69.5561V67.016H147.601V69.5561H142.431V83.7433H139.425V69.5561H134.255ZM164.095 71.6144C164.019 70.9011 163.698 70.3457 163.132 69.9482C162.571 69.5507 161.841 69.352 160.943 69.352C160.311 69.352 159.769 69.4472 159.317 69.6378C158.865 69.8284 158.52 70.087 158.28 70.4137C158.041 70.7404 157.918 71.1134 157.913 71.5327C157.913 71.8812 157.992 72.1834 158.149 72.4393C158.313 72.6952 158.533 72.913 158.811 73.0927C159.089 73.267 159.396 73.414 159.734 73.5338C160.072 73.6536 160.412 73.7543 160.755 73.836L162.323 74.228C162.955 74.375 163.562 74.5738 164.144 74.8243C164.733 75.0747 165.258 75.3905 165.721 75.7717C166.189 76.1529 166.559 76.613 166.832 77.152C167.104 77.6911 167.24 78.3227 167.24 79.0469C167.24 80.027 166.99 80.8901 166.489 81.636C165.988 82.3766 165.263 82.9565 164.316 83.3757C163.374 83.7896 162.233 83.9965 160.894 83.9965C159.592 83.9965 158.463 83.795 157.504 83.3921C156.551 82.9891 155.805 82.4011 155.266 81.6279C154.733 80.8547 154.444 79.9127 154.4 78.8019H157.382C157.425 79.3845 157.605 79.8691 157.921 80.2557C158.237 80.6423 158.648 80.9309 159.154 81.1215C159.666 81.3121 160.238 81.4073 160.869 81.4073C161.528 81.4073 162.105 81.3093 162.601 81.1133C163.102 80.9118 163.494 80.6341 163.777 80.2802C164.06 79.9208 164.204 79.5016 164.21 79.0224C164.204 78.5868 164.076 78.2274 163.826 77.9443C163.575 77.6557 163.224 77.4161 162.772 77.2255C162.326 77.0295 161.803 76.8553 161.204 76.7028L159.301 76.2127C157.923 75.8588 156.834 75.3225 156.034 74.6037C155.239 73.8795 154.842 72.9185 154.842 71.7206C154.842 70.735 155.108 69.872 155.642 69.1314C156.181 68.3909 156.913 67.8164 157.839 67.4081C158.765 66.9942 159.813 66.7873 160.984 66.7873C162.171 66.7873 163.211 66.9942 164.104 67.4081C165.002 67.8164 165.707 68.3854 166.219 69.1151C166.731 69.8393 166.995 70.6724 167.011 71.6144H164.095ZM171.383 83.7433H168.149L174.037 67.016H177.778L183.675 83.7433H180.441L175.973 70.4464H175.842L171.383 83.7433ZM171.489 77.1847H180.31V79.6186H171.489V77.1847ZM185.441 83.7433V67.016H196.157V69.5561H188.472V74.0973H195.422V76.6375H188.472V83.7433H185.441ZM198.54 83.7433H195.306L201.195 67.016H204.935L210.832 83.7433H207.598L203.13 70.4464H203L198.54 83.7433ZM198.646 77.1847H207.467V79.6186H198.646V77.1847ZM212.599 83.7433V67.016H218.871C220.156 67.016 221.235 67.2393 222.106 67.6858C222.982 68.1323 223.644 68.7584 224.091 69.5643C224.542 70.3647 224.768 71.2986 224.768 72.3658C224.768 73.4385 224.54 74.3696 224.082 75.1591C223.63 75.9432 222.963 76.5503 222.081 76.9805C221.199 77.4052 220.116 77.6176 218.831 77.6176H214.363V75.102H218.422C219.174 75.102 219.789 74.9985 220.268 74.7916C220.747 74.5792 221.101 74.2716 221.33 73.8686C221.564 73.4603 221.681 72.9593 221.681 72.3658C221.681 71.7723 221.564 71.2659 221.33 70.8466C221.096 70.4219 220.739 70.1006 220.26 69.8828C219.781 69.6596 219.163 69.548 218.406 69.548H215.629V83.7433H212.599ZM221.24 76.1637L225.381 83.7433H222L217.932 76.1637H221.24ZM230.151 67.016V83.7433H227.121V67.016H230.151Z" fill="white"/>
<path d="M98.7404 20.6144C98.6642 19.9011 98.3429 19.3457 97.7766 18.9482C97.2158 18.5507 96.4862 18.352 95.5877 18.352C94.9561 18.352 94.4143 18.4472 93.9624 18.6378C93.5104 18.8284 93.1647 19.087 92.9251 19.4137C92.6855 19.7404 92.563 20.1134 92.5575 20.5327C92.5575 20.8812 92.6365 21.1834 92.7944 21.4393C92.9577 21.6952 93.1783 21.913 93.456 22.0927C93.7337 22.267 94.0413 22.414 94.3789 22.5338C94.7165 22.6536 95.0568 22.7543 95.3999 22.836L96.968 23.228C97.5997 23.375 98.2068 23.5738 98.7894 23.8243C99.3775 24.0747 99.9029 24.3905 100.366 24.7717C100.834 25.1529 101.204 25.613 101.477 26.152C101.749 26.6911 101.885 27.3227 101.885 28.0469C101.885 29.027 101.634 29.8901 101.134 30.636C100.633 31.3766 99.9084 31.9565 98.9609 32.3757C98.0189 32.7896 96.8782 32.9965 95.5387 32.9965C94.2373 32.9965 93.1075 32.795 92.1491 32.3921C91.1963 31.9891 90.4503 31.4011 89.9112 30.6279C89.3776 29.8547 89.089 28.9127 89.0455 27.8019H92.0266C92.0702 28.3845 92.2499 28.8691 92.5657 29.2557C92.8815 29.6423 93.2926 29.9309 93.799 30.1215C94.3108 30.3121 94.8826 30.4073 95.5142 30.4073C96.1731 30.4073 96.7502 30.3093 97.2457 30.1133C97.7467 29.9118 98.1387 29.6341 98.4219 29.2802C98.705 28.9208 98.8493 28.5016 98.8548 28.0224C98.8493 27.5868 98.7214 27.2274 98.4709 26.9443C98.2204 26.6557 97.8692 26.4161 97.4173 26.2255C96.9708 26.0295 96.448 25.8553 95.8491 25.7028L93.946 25.2127C92.5684 24.8588 91.4794 24.3225 90.679 23.6037C89.884 22.8795 89.4865 21.9185 89.4865 20.7206C89.4865 19.735 89.7533 18.872 90.2869 18.1314C90.826 17.3909 91.5584 16.8164 92.484 16.4081C93.4097 15.9942 94.4579 15.7873 95.6286 15.7873C96.8156 15.7873 97.8556 15.9942 98.7486 16.4081C99.647 16.8164 100.352 17.3854 100.864 18.1151C101.376 18.8393 101.64 19.6724 101.656 20.6144H98.7404ZM107.18 16.016V32.7433H104.149V16.016H107.18ZM119.114 20.6144C119.038 19.9011 118.717 19.3457 118.151 18.9482C117.59 18.5507 116.86 18.352 115.962 18.352C115.33 18.352 114.788 18.4472 114.336 18.6378C113.884 18.8284 113.539 19.087 113.299 19.4137C113.06 19.7404 112.937 20.1134 112.932 20.5327C112.932 20.8812 113.011 21.1834 113.168 21.4393C113.332 21.6952 113.552 21.913 113.83 22.0927C114.108 22.267 114.415 22.414 114.753 22.5338C115.091 22.6536 115.431 22.7543 115.774 22.836L117.342 23.228C117.974 23.375 118.581 23.5738 119.163 23.8243C119.752 24.0747 120.277 24.3905 120.74 24.7717C121.208 25.1529 121.578 25.613 121.851 26.152C122.123 26.6911 122.259 27.3227 122.259 28.0469C122.259 29.027 122.009 29.8901 121.508 30.636C121.007 31.3766 120.282 31.9565 119.335 32.3757C118.393 32.7896 117.252 32.9965 115.913 32.9965C114.611 32.9965 113.482 32.795 112.523 32.3921C111.57 31.9891 110.824 31.4011 110.285 30.6279C109.752 29.8547 109.463 28.9127 109.42 27.8019H112.401C112.444 28.3845 112.624 28.8691 112.94 29.2557C113.256 29.6423 113.667 29.9309 114.173 30.1215C114.685 30.3121 115.257 30.4073 115.888 30.4073C116.547 30.4073 117.124 30.3093 117.62 30.1133C118.121 29.9118 118.513 29.6341 118.796 29.2802C119.079 28.9208 119.223 28.5016 119.229 28.0224C119.223 27.5868 119.095 27.2274 118.845 26.9443C118.594 26.6557 118.243 26.4161 117.791 26.2255C117.345 26.0295 116.822 25.8553 116.223 25.7028L114.32 25.2127C112.942 24.8588 111.853 24.3225 111.053 23.6037C110.258 22.8795 109.861 21.9185 109.861 20.7206C109.861 19.735 110.127 18.872 110.661 18.1314C111.2 17.3909 111.932 16.8164 112.858 16.4081C113.784 15.9942 114.832 15.7873 116.003 15.7873C117.19 15.7873 118.23 15.9942 119.123 16.4081C120.021 16.8164 120.726 17.3854 121.238 18.1151C121.75 18.8393 122.014 19.6724 122.03 20.6144H119.114ZM127.554 16.016V32.7433H124.523V16.016H127.554ZM130.398 16.016H134.106L139.072 28.1368H139.268L144.234 16.016H147.942V32.7433H145.034V21.2515H144.879L140.256 32.6943H138.084L133.461 21.227H133.306V32.7433H130.398V16.016ZM153.835 16.016V32.7433H150.805V16.016H153.835ZM167.224 16.016H170.254V26.9443C170.254 28.1422 169.971 29.1958 169.404 30.1051C168.844 31.0145 168.054 31.7251 167.036 32.2369C166.018 32.7433 164.828 32.9965 163.467 32.9965C162.1 32.9965 160.907 32.7433 159.889 32.2369C158.871 31.7251 158.081 31.0145 157.52 30.1051C156.96 29.1958 156.679 28.1422 156.679 26.9443V16.016H159.709V26.6911C159.709 27.3881 159.862 28.0088 160.167 28.5533C160.477 29.0978 160.913 29.5252 161.474 29.8356C162.034 30.1405 162.699 30.293 163.467 30.293C164.234 30.293 164.899 30.1405 165.459 29.8356C166.026 29.5252 166.461 29.0978 166.766 28.5533C167.071 28.0088 167.224 27.3881 167.224 26.6911V16.016ZM172.375 18.5561V16.016H185.721V18.5561H180.551V32.7433H177.545V18.5561H172.375Z" fill="white"/>
<path d="M89.6499 58.7433V42.016H95.9226C97.2076 42.016 98.2857 42.2556 99.157 42.7348C100.034 43.2139 100.695 43.8728 101.142 44.7113C101.594 45.5444 101.82 46.4919 101.82 47.5537C101.82 48.6263 101.594 49.5792 101.142 50.4123C100.69 51.2454 100.023 51.9015 99.1406 52.3807C98.2585 52.8544 97.1722 53.0913 95.8817 53.0913H91.7244V50.6002H95.4734C96.2248 50.6002 96.8401 50.4695 97.3192 50.2081C97.7984 49.9468 98.1523 49.5874 98.381 49.13C98.6152 48.6726 98.7322 48.1472 98.7322 47.5537C98.7322 46.9601 98.6152 46.4374 98.381 45.9855C98.1523 45.5335 97.7957 45.1823 97.3111 44.9319C96.8319 44.6759 96.2139 44.548 95.457 44.548H92.68V58.7433H89.6499ZM104.015 58.7433V42.016H110.287C111.572 42.016 112.651 42.2393 113.522 42.6858C114.398 43.1323 115.06 43.7584 115.506 44.5643C115.958 45.3647 116.184 46.2986 116.184 47.3658C116.184 48.4385 115.956 49.3696 115.498 50.1591C115.046 50.9432 114.379 51.5503 113.497 51.9805C112.615 52.4052 111.532 52.6176 110.247 52.6176H105.779V50.102H109.838C110.59 50.102 111.205 49.9985 111.684 49.7916C112.163 49.5792 112.517 49.2716 112.746 48.8686C112.98 48.4603 113.097 47.9593 113.097 47.3658C113.097 46.7723 112.98 46.2659 112.746 45.8466C112.512 45.4219 112.155 45.1006 111.676 44.8828C111.197 44.6596 110.579 44.548 109.822 44.548H107.045V58.7433H104.015ZM112.656 51.1637L116.797 58.7433H113.416L109.348 51.1637H112.656ZM121.567 42.016V58.7433H118.537V42.016H121.567ZM126.649 42.016L131.002 55.1822H131.174L135.519 42.016H138.851L132.954 58.7433H129.214L123.325 42.016H126.649ZM140.812 58.7433H137.577L143.466 42.016H147.207L153.104 58.7433H149.87L145.402 45.4464H145.271L140.812 58.7433ZM140.918 52.1847H149.739V54.6186H140.918V52.1847ZM152.114 44.5561V42.016H165.459V44.5561H160.289V58.7433H157.284V44.5561H152.114ZM167.595 58.7433V42.016H178.475V44.5561H170.625V49.0973H177.911V51.6375H170.625V56.2032H178.54V58.7433H167.595Z" fill="white"/>
<path d="M58.885 29.3117C60.5404 29.9096 62.4649 30.9832 63.4878 31.8801C64.4164 32.7091 65.2105 33.7827 64.9817 33.9186C64.9144 33.9458 64.5914 34.0273 64.228 34.0681C63.6224 34.1632 63.5955 34.1904 63.5955 34.5981C63.5955 35.6717 64.403 39.9117 64.6452 40.1563C64.7125 40.2242 64.9009 40.1563 65.1028 39.9932C65.2912 39.8437 65.7757 39.5583 66.166 39.3545C66.812 39.0147 67.0274 38.974 68.1714 38.9876C69.8133 38.9876 70.7554 39.273 71.5764 39.9932C72.3973 40.7271 72.6396 41.393 72.5858 42.7791L72.5454 43.8663L72.007 43.9342C71.5091 44.0022 71.4418 44.0565 71.0784 44.804C70.8765 45.2524 70.6612 45.8504 70.6208 46.1494C70.567 46.5978 70.5131 46.6658 70.2709 46.5978C69.3826 46.3396 66.2468 45.8368 64.7125 45.7009C62.3707 45.4835 55.7222 45.5922 53.0978 45.8912C52.0211 46.0135 49.4236 46.394 47.3106 46.7201C36.6111 48.3781 28.1726 48.6499 24.9426 47.4268C22.0086 46.2988 20.259 44.7768 16.5041 40.0068C16.1676 39.5855 15.4678 38.7565 14.9563 38.145C13.8393 36.8676 12.3992 34.9786 12.4665 34.9106C12.5876 34.8155 16.1945 34.4078 18.0787 34.2855C22.2239 34.0137 29.68 34.1632 35.0634 34.6253C36.3554 34.734 37.8493 34.8563 38.3876 34.9106L39.3432 34.9922L41.2139 33.2663C43.798 30.8881 44.0133 30.793 48.6565 30.1406C49.5044 30.0183 51.4962 29.7058 53.0709 29.4476C56.4894 28.8904 57.6602 28.8632 58.885 29.3117ZM51.8192 31.024C46.8261 31.4181 45.5072 31.5947 44.4709 32.084C43.3404 32.6004 40.6487 34.8155 40.8775 35.033C40.9044 35.0737 41.7792 35.196 42.8155 35.3047C45.09 35.563 46.4224 35.7804 49.3967 36.3647C50.7695 36.6501 51.7654 36.786 51.9 36.7181C52.0211 36.6637 52.7075 35.8891 53.4477 35.0058C54.1745 34.1224 55.2377 32.8722 55.8164 32.2063C56.3951 31.554 56.8662 30.956 56.8662 30.8881C56.8662 30.6842 55.8568 30.7114 51.8192 31.024ZM57.6737 32.4101C56.6778 33.674 56.3009 34.136 54.659 36.0794C54.1745 36.6501 53.8246 37.153 53.8784 37.1937C53.9457 37.2345 54.4437 37.3568 54.9955 37.4927C56.6374 37.8596 59.3829 38.6206 61.146 39.205C62.0612 39.504 62.8552 39.7078 62.8956 39.6535C62.9764 39.5719 62.1958 34.0681 61.967 33.1712C61.8862 32.8586 61.6843 32.5596 61.4152 32.3694C60.9845 32.0568 59.0599 31.1599 58.8042 31.1599C58.7235 31.1599 58.2255 31.7306 57.6737 32.4101ZM19.2361 36.256C15.5754 36.5958 16.1272 36.7045 21.2011 36.623C28.1592 36.5278 34.0271 36.8676 39.6393 37.683C47.8355 38.8653 55.5607 40.5504 63.5282 42.8742C68.3463 44.2876 68.8443 44.3963 69.0596 44.1788C69.1538 44.0837 69.275 43.8119 69.3288 43.5809C69.4095 43.1732 69.3961 43.1732 68.6828 43.0237C68.2925 42.9422 66.3006 42.453 64.2684 41.923C51.6443 38.6206 41.2947 36.7996 31.8333 36.1881C28.8859 36.0114 21.5241 36.0386 19.2361 36.256Z" fill="#C8102E"/>
<path d="M18.7786 31.5131C18.967 31.5403 20.3532 31.649 21.874 31.7713C23.3948 31.8936 25.5348 32.111 26.6518 32.2605C29.1282 32.5731 34.875 33.5787 34.7673 33.6739C34.7404 33.6875 33.2061 33.6195 31.3623 33.5108C25.5348 33.171 18.5498 33.4021 13.5836 34.1087L11.9416 34.3262L11.6052 33.9321C10.0305 32.0295 9.88249 31.8392 10.0574 31.7849C10.6765 31.581 17.5404 31.3636 18.7786 31.5131Z" fill="#C8102E"/>
<path d="M65.6816 47.6034C67.5254 47.7257 69.7191 48.0655 71.4687 48.5139C73.151 48.9352 75.8293 49.8457 76.0312 50.0496C76.1388 50.1719 76.1119 50.1991 75.91 50.1447C75.3044 49.968 72.4916 49.6419 70.3651 49.4924C66.1257 49.207 59.8675 49.6011 49.7332 50.797C44.7401 51.3814 41.9003 51.6396 37.8493 51.8434C31.2143 52.1696 25.4944 51.4493 20.9319 49.6827C19.5188 49.1391 17.5135 48.1606 17.0963 47.8073C16.7867 47.5491 16.8136 47.5627 18.3748 48.2014C21.3357 49.4109 25.4002 50.036 30.4202 50.036C33.8252 50.0496 36.5842 49.8186 44.8208 48.8265C52.3711 47.9296 54.013 47.7529 56.9335 47.6034C59.6521 47.4539 63.4474 47.4539 65.6816 47.6034Z" fill="#C8102E"/>
<path d="M70.7285 51.1367C72.2628 51.2862 75.7351 51.8026 75.8293 51.8978C75.8697 51.9385 75.3313 51.9114 74.6315 51.857C73.9316 51.8026 71.8994 51.7619 70.1229 51.7755C66.3007 51.789 63.2321 52.1152 53.515 53.5285C44.2825 54.8603 42.0349 55.0914 37.2706 55.1729C32.7889 55.2544 31.5911 55.1729 28.4687 54.5342C26.3154 54.0857 24.5792 53.4878 22.9911 52.6316C21.4299 51.789 21.2953 51.5716 22.6816 52.1016C25.3598 53.1344 30.0838 53.8547 34.1886 53.8547C37.0014 53.8547 42.1964 53.379 49.1276 52.4957C58.5889 51.2862 60.5404 51.1232 65.4124 51.0688C67.7003 51.0416 70.096 51.0688 70.7285 51.1367Z" fill="#C8102E"/>
</svg>
