<svg width="76" height="170" viewBox="0 0 76 170" fill="none" xmlns="http://www.w3.org/2000/svg">
<path d="M38 13C41.3152 13 44.4946 14.317 46.8388 16.6612C49.183 19.0054 50.5 22.1848 50.5 25.5C50.5 28.8152 49.183 31.9946 46.8388 34.3388C44.4946 36.683 41.3152 38 38 38C34.6848 38 31.5054 36.683 29.1612 34.3388C26.817 31.9946 25.5 28.8152 25.5 25.5C25.5 22.1848 26.817 19.0054 29.1612 16.6612C31.5054 14.317 34.6848 13 38 13ZM38 0.5C31.3696 0.5 25.0107 3.13392 20.3223 7.82233C15.6339 12.5107 13 18.8696 13 25.5C13 32.1304 15.6339 38.4893 20.3223 43.1777C25.0107 47.8661 31.3696 50.5 38 50.5C44.6304 50.5 50.9893 47.8661 55.6777 43.1777C60.3661 38.4893 63 32.1304 63 25.5C63 18.8696 60.3661 12.5107 55.6777 7.82233C50.9893 3.13392 44.6304 0.5 38 0.5ZM53.375 56.625H22.625C16.7571 56.625 11.1295 58.956 6.98026 63.1053C2.83102 67.2545 0.499998 72.8821 0.499998 78.75V111.75C0.363401 115.223 1.59726 118.611 3.93556 121.184C6.27385 123.756 9.52929 125.306 13 125.5V154.625C13 158.603 14.5804 162.419 17.3934 165.232C20.2064 168.045 24.0217 169.625 28 169.625H48C50.0126 169.626 52.0049 169.222 53.8581 168.437C55.7114 167.652 57.3878 166.503 58.7874 165.056C60.187 163.61 61.2812 161.897 62.005 160.019C62.7287 158.141 63.0671 156.136 63 154.125V125.5C66.4707 125.306 69.7261 123.756 72.0644 121.184C74.4027 118.611 75.6366 115.223 75.5 111.75V78.75C75.5 72.8821 73.169 67.2545 69.0197 63.1053C64.8705 58.956 59.2429 56.625 53.375 56.625ZM13 113V78.75C12.9832 77.4814 13.2207 76.2222 13.6984 75.0469C14.1762 73.8715 14.8845 72.8038 15.7817 71.9067C16.6788 71.0095 17.7465 70.3012 18.9219 69.8234C20.0972 69.3457 21.3564 69.1082 22.625 69.125H53.375C54.6436 69.1082 55.9028 69.3457 57.0781 69.8234C58.2535 70.3012 59.3212 71.0095 60.2183 71.9067C61.1155 72.8038 61.8238 73.8715 62.3016 75.0469C62.7793 76.2222 63.0168 77.4814 63 78.75V113H50.5V154.375C50.5 155.038 50.2366 155.674 49.7678 156.143C49.2989 156.612 48.663 156.875 48 156.875H28C27.337 156.875 26.7011 156.612 26.2322 156.143C25.7634 155.674 25.5 155.038 25.5 154.375V113H13Z" fill="white"/>
</svg>
