<svg width="85" height="33" viewBox="0 0 85 33" fill="none" xmlns="http://www.w3.org/2000/svg">
<path d="M53.55 6.15002H37.45C36.185 6.15002 35.15 7.18502 35.15 8.45002V24.55C35.15 25.8162 36.185 26.85 37.45 26.85H45.5V18.8H43.2V15.9538H45.5V13.5963C45.5 11.1077 46.8938 9.35967 49.8309 9.35967L51.9044 9.36197V12.3577H50.5278C49.3847 12.3577 48.95 13.2156 48.95 14.0114V15.9549H51.9032L51.25 18.8H48.95V26.85H53.55C54.815 26.85 55.85 25.8162 55.85 24.55V8.45002C55.85 7.18502 54.815 6.15002 53.55 6.15002Z" fill="#0A1D37"/>
<path d="M77.7125 16.5C77.7125 14.5312 76.0625 12.9563 74 12.9563C71.9375 12.9563 70.2875 14.5312 70.2875 16.5C70.2875 18.4688 71.9375 20.0437 74 20.0437C76.0625 20.0437 77.7125 18.4688 77.7125 16.5ZM79.6375 16.5C79.6375 19.5188 77.1625 21.8813 74 21.8813C70.8375 21.8813 68.3625 19.5188 68.3625 16.5C68.3625 13.4813 70.8375 11.1188 74 11.1188C77.1625 11.1188 79.6375 13.4813 79.6375 16.5ZM81.15 10.8562C81.15 11.6437 80.6 12.1687 79.775 12.1687C78.95 12.1687 78.4 11.6437 78.4 10.8562C78.4 10.0687 78.95 9.54375 79.775 9.54375C80.6 9.54375 81.15 10.2 81.15 10.8562ZM74 7.8375C72.35 7.8375 68.9125 7.70625 67.5375 8.23125C66.575 8.625 65.75 9.4125 65.475 10.3313C64.925 11.6438 65.0625 14.925 65.0625 16.5C65.0625 18.075 64.925 21.3562 65.475 22.6687C65.75 23.5875 66.575 24.375 67.5375 24.6375C68.9125 25.1625 72.4875 25.0312 74 25.0312C75.5125 25.0312 79.0875 25.1625 80.4625 24.6375C81.425 24.2438 82.1125 23.5875 82.525 22.6687C83.075 21.225 82.9375 17.9438 82.9375 16.5C82.9375 15.0562 83.075 11.6438 82.525 10.3313C82.25 9.4125 81.425 8.625 80.4625 8.3625C79.0875 7.70625 75.65 7.8375 74 7.8375ZM85 16.5V20.8313C85 22.4062 84.45 23.9813 83.2125 25.2938C81.975 26.475 80.325 27 78.5375 27H69.4625C67.8125 27 66.1625 26.475 64.7875 25.2938C63.6875 24.1125 63 22.5375 63 20.8313V12.1687C63 10.4625 63.6875 8.8875 64.7875 7.70625C66.1625 6.65625 67.8125 6 69.4625 6H78.5375C80.1875 6 81.8375 6.525 83.2125 7.70625C84.3125 8.8875 85 10.4625 85 12.1687V16.5Z" fill="#0A1D37"/>
<path d="M26.7193 8.94226C26.414 7.58731 25.5144 6.52019 24.3722 6.15805C22.3018 5.5 14 5.5 14 5.5C14 5.5 5.69818 5.5 3.62778 6.15805C2.48556 6.52025 1.58597 7.58731 1.28064 8.94226C0.725891 11.3982 0.725891 16.5222 0.725891 16.5222C0.725891 16.5222 0.725891 21.6463 1.28064 24.1022C1.58597 25.4572 2.48556 26.4798 3.62778 26.8419C5.69818 27.5 14 27.5 14 27.5C14 27.5 22.3018 27.5 24.3722 26.8419C25.5144 26.4798 26.414 25.4572 26.7193 24.1022C27.2741 21.6463 27.2741 16.5222 27.2741 16.5222C27.2741 16.5222 27.2741 11.3982 26.7193 8.94226ZM11.2848 21.1745V11.87L18.2235 16.5223L11.2848 21.1745Z" fill="#0A1D37"/>
</svg>
