<svg width="28" height="33" viewBox="0 0 28 33" fill="none" xmlns="http://www.w3.org/2000/svg">
<path d="M26.7193 8.94226C26.414 7.58731 25.5144 6.52019 24.3722 6.15805C22.3018 5.5 14 5.5 14 5.5C14 5.5 5.69818 5.5 3.62778 6.15805C2.48556 6.52025 1.58597 7.58731 1.28064 8.94226C0.725891 11.3982 0.725891 16.5222 0.725891 16.5222C0.725891 16.5222 0.725891 21.6463 1.28064 24.1022C1.58597 25.4572 2.48556 26.4798 3.62778 26.8419C5.69818 27.5 14 27.5 14 27.5C14 27.5 22.3018 27.5 24.3722 26.8419C25.5144 26.4798 26.414 25.4572 26.7193 24.1022C27.2741 21.6463 27.2741 16.5222 27.2741 16.5222C27.2741 16.5222 27.2741 11.3982 26.7193 8.94226ZM11.2848 21.1745V11.87L18.2235 16.5223L11.2848 21.1745Z" fill="#0A1D37"/>
</svg>
